<svg width="64" height="64" viewBox="0 0 64 64" fill="none" xmlns="http://www.w3.org/2000/svg">
<path d="M17.8131 4.30322C17.8131 4.30322 17.5643 12.8768 22.8994 16.6495C22.8994 16.6495 16.3897 16.569 12.8109 10.4873L17.8131 4.29956V4.30322Z" fill="#FFF5EB"/>
<path d="M0.933006 3.43602V13.4367C0.933006 14.8162 2.05274 15.936 3.43227 15.936H13.4329L14.6844 9.68599L24.6851 7.18674V0.933105H3.43593C2.0564 0.933105 0.936669 2.05283 0.936669 3.43236L0.933006 3.43602Z" fill="#FFF5EB"/>
<path d="M28.4359 2.18457H24.6852V5.93528H28.4359V2.18457Z" fill="#FFF5EB"/>
<path d="M12.8109 22.186H2.81016V25.9367H12.8109V22.186Z" fill="#FFF5EB"/>
<path d="M9.99716 15.936H5.6207V22.186H9.99716V15.936Z" fill="#FFF5EB"/>
<path d="M14.6843 39.311V27.8101C14.6843 26.7745 13.8463 25.9365 12.8107 25.9365H2.81005C1.77449 25.9365 0.936523 26.7745 0.936523 27.8101V60.5602C0.936523 61.9397 2.05626 63.0594 3.43579 63.0594H22.1857C23.5652 63.0594 24.6849 61.9397 24.6849 60.5602V44.7926C24.6849 43.7497 24.0373 42.8166 23.0602 42.4506L14.6843 39.311Z" fill="#FFF5EB"/>
<path d="M0.933006 36.9985V51.9977H24.6851V44.7927C24.6851 43.7498 24.0374 42.8167 23.0604 42.4508L14.6844 39.3112V36.9985H0.933006Z" fill="#EE6451"/>
<path d="M46.8088 62.9696C55.7838 62.9696 63.0595 55.6939 63.0595 46.7189C63.0595 37.7439 55.7838 30.4683 46.8088 30.4683C37.8339 30.4683 30.5582 37.7439 30.5582 46.7189C30.5582 55.6939 37.8339 62.9696 46.8088 62.9696Z" fill="#FFF5EB"/>
<path d="M40.9359 4.06176C40.9359 5.44129 39.8161 6.56101 38.4366 6.56101C37.0571 6.56101 33.4381 4.06176 33.4381 4.06176C33.4381 4.06176 37.0571 1.5625 38.4366 1.5625C39.8161 1.5625 40.9359 2.68223 40.9359 4.06176Z" fill="#FFF5EB"/>
<path d="M46.8091 45.8394L41.6679 48.8399C40.636 49.4437 39.9993 50.5524 40.0029 51.749V52.2064C40.0029 54.0616 41.5142 55.5656 43.3694 55.5619C44.2696 55.5619 45.1332 55.2033 45.7662 54.563L46.8091 53.5018L47.8556 54.5666C48.4887 55.207 49.3523 55.5693 50.2525 55.5656C52.1077 55.5656 53.6153 54.0617 53.6153 52.2028V51.749C53.6153 50.5561 52.9823 49.451 51.9503 48.8472L46.8091 45.8394Z" fill="#A2B72B"/>
<path d="M48.7555 40.0063C48.7555 41.0784 47.881 42.9227 46.8088 42.9227C45.7366 42.9227 44.8621 41.0784 44.8621 40.0063C44.8621 38.9305 45.733 38.0596 46.8051 38.0596C47.881 38.0596 48.7519 38.9305 48.7519 40.0026L48.7555 40.0063Z" fill="#A2B72B"/>
<path d="M55.5617 42.9228C55.5617 43.9949 53.7174 45.8392 52.6452 45.8392C51.5731 45.8392 51.6719 43.9949 51.6719 42.9228C51.6463 41.8506 52.4916 40.9577 53.5674 40.9285C54.6432 40.8992 55.5324 41.7481 55.5617 42.824C55.5617 42.8569 55.5617 42.8898 55.5617 42.9228Z" fill="#A2B72B"/>
<path d="M41.9495 42.9228C41.9495 43.9949 42.052 45.8392 40.9761 45.8392C39.9003 45.8392 38.0597 43.9986 38.0597 42.9228C38.0341 41.8506 38.8794 40.9577 39.9552 40.9285C41.031 40.8992 41.9202 41.7481 41.9495 42.824C41.9495 42.8569 41.9495 42.8898 41.9495 42.9228Z" fill="#A2B72B"/>
<path d="M28.4359 1.2478H25.6219V0.936764C25.6219 0.417153 25.2011 0 24.6852 0H3.43603C1.53688 0 0 1.54054 0 3.43602V13.4367C0 15.3358 1.54054 16.8727 3.43603 16.8727H4.68748V21.2492H2.81395C2.29434 21.2492 1.87719 21.67 1.87719 22.1859V25.1609C0.753804 25.5597 0.00366281 26.6209 0.00366281 27.8138V60.564C0.00366281 62.4631 1.54418 64 3.43967 64H22.1896C24.0887 64 25.6256 62.4595 25.6256 60.564V44.7963C25.6219 43.3656 24.7328 42.0848 23.3971 41.5762L15.6286 38.6635V27.8138C15.6286 26.6209 14.8748 25.5597 13.755 25.1609V22.1859C13.755 21.6663 13.3342 21.2492 12.8183 21.2492H10.9448V16.8727H13.444C13.8904 16.8727 14.2747 16.558 14.3625 16.1226L14.7357 14.271C18.4169 17.4948 22.6946 17.5899 22.8958 17.5936H22.9068C23.4264 17.5936 23.8436 17.1728 23.8436 16.6568C23.8436 16.3531 23.6972 16.0677 23.4484 15.8921C21.1796 14.2856 20.0233 11.6583 19.4342 9.4701L24.923 8.09422C25.3365 7.98811 25.6293 7.61121 25.6293 7.18308V6.87204H28.4432C28.9628 6.87204 29.38 6.45123 29.38 5.93528V2.18456C29.38 1.66495 28.9592 1.2478 28.4432 1.2478H28.4359ZM2.81029 26.8734H12.811C13.3306 26.8734 13.7477 27.2942 13.7477 27.8102V36.0617H1.87353V27.8102C1.87353 27.2906 2.29434 26.8734 2.81029 26.8734ZM22.1859 62.1228H3.43603C2.57245 62.1228 1.87353 61.4239 1.87353 60.5603V52.9345H23.7484V60.5603C23.7484 61.4239 23.0495 62.1228 22.1859 62.1228ZM22.7348 43.329C23.3423 43.5595 23.7448 44.1413 23.7484 44.7927V51.061H1.87353V37.9353H13.7477V39.3111C13.7477 39.7027 13.9929 40.0503 14.3552 40.1857L22.7312 43.329H22.7348ZM11.8742 24.9962H3.75071V23.1227H11.8742V24.9962ZM9.06027 21.2455H6.561V16.8691H9.06027V21.2455ZM20.0453 15.1456C18.1864 14.5491 16.5068 13.4953 15.1639 12.0828L15.4895 10.4471L17.6082 9.91652C18.1535 11.962 18.9768 13.7258 20.0453 15.1456ZM23.7484 6.44757L14.4576 8.77118C14.1063 8.859 13.8392 9.14077 13.766 9.49205L12.6646 14.9919H3.43236C2.56878 14.9919 1.86986 14.293 1.86986 13.4294V3.43602C1.86986 2.57244 2.56878 1.87353 3.43236 1.87353H23.7448V6.45489L23.7484 6.44757ZM27.4991 4.9912H25.6256V3.11767H27.4991V4.9912Z" fill="#EE6451"/>
<path d="M46.8089 29.6216C37.3315 29.6216 29.6215 37.3316 29.6215 46.809C29.6215 56.2864 37.3315 63.9964 46.8089 63.9964C56.2863 63.9964 63.9963 56.2864 63.9963 46.809C63.9963 37.3316 56.2863 29.6216 46.8089 29.6216ZM46.8089 62.1229C38.3524 62.1229 31.495 55.2655 31.495 46.809C31.495 38.3525 38.3524 31.4951 46.8089 31.4951C55.2654 31.4951 62.1228 38.3525 62.1228 46.809C62.1155 55.2618 55.2617 62.1119 46.8089 62.1229Z" fill="#EE6451"/>
<path d="M32.9004 4.83019C33.8042 5.45592 36.8816 7.49777 38.4332 7.49777C40.3323 7.49777 41.8692 5.95724 41.8692 4.06175C41.8692 2.16627 40.3286 0.625732 38.4332 0.625732C36.8816 0.625732 33.8079 2.66758 32.9004 3.29331C32.4759 3.58605 32.3662 4.16787 32.6589 4.596C32.7248 4.69114 32.8053 4.77164 32.9004 4.83751V4.83019ZM38.4332 2.4956C39.2967 2.4956 39.9957 3.19451 39.9957 4.05809C39.9957 4.92167 39.2967 5.62059 38.4332 5.62059C37.9318 5.62059 36.5194 4.90338 35.1508 4.05809C36.5194 3.21281 37.9318 2.4956 38.4332 2.4956Z" fill="#EE6451"/>
<path d="M52.4221 48.0312L47.2809 45.0306C46.9881 44.8586 46.6258 44.8586 46.3368 45.0306L41.1956 48.0312C39.8819 48.8069 39.0732 50.2157 39.0695 51.7416V52.199C39.0695 54.5739 40.9943 56.4986 43.3691 56.4986C44.5218 56.4986 45.6232 56.0376 46.4319 55.2142L46.8052 54.8264L47.1784 55.2142C48.8434 56.9048 51.5658 56.9268 53.2564 55.2618C54.0761 54.4531 54.5408 53.3517 54.5408 52.199V51.749C54.5408 50.2231 53.7321 48.8069 52.4147 48.0312H52.4221ZM52.6709 52.199C52.6709 53.5383 51.5841 54.6215 50.2485 54.6215C49.5972 54.6215 48.9751 54.3616 48.5214 53.8969L47.4748 52.8321C47.1125 52.4625 46.5161 52.4588 46.1465 52.8211L46.1355 52.8321L45.089 53.8969C44.1486 54.852 42.6153 54.863 41.6603 53.9225C41.1956 53.4651 40.9358 52.8431 40.9358 52.1954V51.7453C40.9358 50.8854 41.3931 50.0877 42.136 49.6522L46.8015 46.9261L51.467 49.6522C52.2098 50.0877 52.6709 50.8817 52.6746 51.7453V52.1954L52.6709 52.199Z" fill="#A2B72B"/>
<path d="M46.8089 43.8594C48.5397 43.8594 49.6924 41.5395 49.6924 40.0063C49.6924 38.4145 48.4043 37.1228 46.8126 37.1228C45.2208 37.1228 43.9291 38.4109 43.9291 40.0026C43.9291 41.5395 45.0781 43.8594 46.8126 43.8594H46.8089ZM46.8089 38.9963C47.3651 38.9963 47.8152 39.4464 47.8152 40.0026C47.8152 40.8772 47.0834 41.9823 46.8089 41.9823C46.5345 41.9823 45.8026 40.8808 45.8026 40.0026C45.8026 39.4464 46.2527 38.9963 46.8089 38.9963Z" fill="#A2B72B"/>
<path d="M53.6149 40.0393C52.0231 40.0393 50.735 41.331 50.735 42.9228V43.1716C50.7277 44.2291 50.7204 45.5465 51.4559 46.2856C51.7706 46.604 52.1987 46.7796 52.6488 46.776C54.2333 46.776 56.502 44.5072 56.502 42.9228C56.502 41.331 55.2103 40.043 53.6185 40.043L53.6149 40.0393ZM52.7403 44.8878C52.5939 44.5328 52.6012 43.5705 52.6049 43.1862V42.9228C52.5866 42.3666 53.0221 41.8982 53.5746 41.8799C54.1272 41.8616 54.5992 42.2971 54.6175 42.8496C54.6175 42.8716 54.6175 42.8972 54.6175 42.9191C54.6211 43.4424 53.3514 44.7451 52.7476 44.8841H52.7403V44.8878Z" fill="#A2B72B"/>
<path d="M42.169 46.2894C42.9045 45.5466 42.8972 44.2329 42.8899 43.1754V42.9265C42.9228 41.3348 41.6604 40.0174 40.0686 39.9845C38.4768 39.9516 37.1595 41.214 37.1266 42.8058C37.1266 42.846 37.1266 42.8863 37.1266 42.9265C37.1266 44.511 39.3953 46.7797 40.9797 46.7797C41.4262 46.7834 41.858 46.6077 42.169 46.2894ZM39.0001 42.9229C38.9818 42.3667 39.4136 41.8983 39.9698 41.88C40.526 41.8617 40.9944 42.2935 41.0127 42.8497C41.0127 42.8717 41.0127 42.8973 41.0127 42.9192V43.1827C41.0127 43.5669 41.0236 44.5293 40.8773 44.8842C40.2698 44.7452 39.0001 43.4425 39.0001 42.9192V42.9229Z" fill="#A2B72B"/>
</svg>
