<svg width="88" height="66" viewBox="0 0 88 66" fill="none" xmlns="http://www.w3.org/2000/svg">
<path d="M83.2707 14.3018H4.72584C2.82675 14.3018 1.28723 15.8969 1.28723 17.8647V60.6035C1.28723 62.5713 2.82675 64.1665 4.72584 64.1665H83.2707C85.1698 64.1665 86.7093 62.5713 86.7093 60.6035V17.8647C86.7093 15.8969 85.1698 14.3018 83.2707 14.3018Z" fill="#FFF5EB"/>
<path d="M76.6546 14.3018H11.3413V64.1665H76.6546V14.3018Z" fill="#FFF5EB"/>
<path d="M26.809 5.39645V14.3018H31.9648V7.18002H56.027V14.3018H61.1829V5.39645C61.1829 3.42953 59.6426 1.8335 57.7443 1.8335H30.2435C28.3453 1.8335 26.8049 3.42953 26.8049 5.39645H26.809Z" fill="#EE6451"/>
<path d="M43.9976 37.6506L35.9178 42.5388C34.2971 43.5222 33.2997 45.3183 33.2997 47.2644V48.0061C33.2997 51.0273 35.6645 53.4777 38.5802 53.4818C39.9959 53.4818 41.3512 52.8943 42.3446 51.8483L43.9895 50.1147L45.6344 51.8483C46.6278 52.8943 47.9831 53.4818 49.3988 53.4818C52.3145 53.4818 54.6793 51.0315 54.6793 48.0103V47.2685C54.6793 45.3224 53.6819 43.5264 52.0652 42.5429L43.9855 37.6548L43.9976 37.6506Z" fill="#A2B72B"/>
<path d="M47.0545 28.1536C47.0545 29.9039 45.679 32.9001 43.9979 32.9001C42.3168 32.9001 40.9414 29.8997 40.9414 28.1536C40.9414 26.4034 42.3088 24.9866 43.9979 24.9866C45.6871 24.9866 47.0545 26.4034 47.0545 28.1536Z" fill="#A2B72B"/>
<path d="M57.7484 32.9002C57.7484 34.6504 54.8528 37.6508 53.1636 37.6508C51.4745 37.6508 51.6353 34.6504 51.6353 32.9002C51.6353 31.15 53.0068 29.7332 54.6919 29.7332C56.377 29.7332 57.7444 31.15 57.7484 32.9002Z" fill="#A2B72B"/>
<path d="M36.3606 32.9002C36.3606 34.6504 36.5215 37.6508 34.8324 37.6508C33.1432 37.6508 30.2476 34.6504 30.2476 32.9002C30.2476 31.15 31.619 29.7332 33.3041 29.7332C34.9892 29.7332 36.3566 31.15 36.3606 32.9002Z" fill="#A2B72B"/>
<path d="M83.2704 12.9641H62.4739V5.39646C62.4739 2.69195 60.3545 0.504167 57.7484 0.5H30.2476C27.6375 0.5 25.5261 2.69612 25.5221 5.39646V12.9641H4.72556C2.11544 12.9641 0.00402175 15.1602 0 17.8606V60.6035C0 63.3081 2.11946 65.4958 4.72556 65.5H83.2744C85.8846 65.5 87.996 63.3039 88 60.6035V17.8606C88 15.1561 85.8805 12.9683 83.2744 12.9641H83.2704ZM54.7401 12.9641H33.2559V8.51352H54.7401V12.9641ZM75.3637 15.6353V62.8288H12.6283V15.6353H75.3637ZM28.096 5.39646C28.096 4.16714 29.0572 3.17119 30.2436 3.17119H57.7443C58.9308 3.17119 59.892 4.16714 59.892 5.39646V12.9641H57.314V7.17587C57.314 6.43827 56.7349 5.83818 56.023 5.83818H31.9609C31.249 5.83818 30.6699 6.43827 30.6699 7.17587V12.9641H28.092V5.39646H28.096ZM2.57392 60.6035V17.8606C2.57392 16.6313 3.53512 15.6353 4.72154 15.6353H10.0504V62.8288H4.72154C3.53512 62.8288 2.57392 61.8329 2.57392 60.6035ZM85.418 60.6035C85.418 61.8329 84.4569 62.8288 83.2704 62.8288H77.9416V15.6353H83.2704C84.4569 15.6353 85.418 16.6313 85.418 17.8606V60.6035Z" fill="#EE6451"/>
<path d="M52.7251 41.3843L44.6454 36.4962C44.2432 36.2503 43.7485 36.2503 43.3464 36.4962L35.2667 41.3843C33.2558 42.6094 32.0171 44.8431 32.009 47.2601V48.0018C32.009 51.7606 34.9489 54.811 38.5766 54.8152C40.3381 54.8152 42.0272 54.0818 43.2659 52.7816L43.9939 52.0148L44.7218 52.7816C47.2676 55.4611 51.4261 55.4986 54.012 52.8649C55.2709 51.5856 55.9787 49.8354 55.9747 48.006V47.2684C55.9706 44.8514 54.7319 42.6136 52.7211 41.3885L52.7251 41.3843ZM53.4128 48.006C53.4128 50.2938 51.6231 52.144 49.4192 52.144C48.3494 52.144 47.3239 51.6981 46.5758 50.9105L44.9309 49.177C44.4322 48.6519 43.6118 48.6436 43.1051 49.1645L43.093 49.177L41.4481 50.9105C39.8997 52.5399 37.37 52.5607 35.7975 50.9564C35.0334 50.1771 34.6071 49.1186 34.6071 48.0101V47.2684C34.6071 45.7973 35.3551 44.4347 36.5777 43.6888L44.0059 39.2007L51.4341 43.6888C52.6567 44.4347 53.4088 45.7932 53.4128 47.2601L53.4209 48.006H53.4128Z" fill="#A2B72B"/>
<path d="M43.998 34.2334C46.6926 34.2334 48.3415 30.2954 48.3415 28.1493C48.3415 25.6615 46.399 23.6445 43.998 23.6445C41.597 23.6445 39.6505 25.6573 39.6505 28.1451C39.6505 30.2912 41.2994 34.2334 43.994 34.2334H43.998ZM43.998 26.3199C44.9753 26.3199 45.7636 27.1408 45.7636 28.1493C45.7636 29.5578 44.6214 31.5622 43.998 31.5622C43.3747 31.5622 42.2325 29.5578 42.2325 28.1493C42.2325 27.1367 43.0248 26.3199 43.998 26.3199Z" fill="#A2B72B"/>
<path d="M53.1637 38.9841C55.5767 38.9841 59.0354 35.4003 59.0354 32.9C59.0354 30.4122 57.0889 28.3994 54.6879 28.3994C52.291 28.3994 50.3444 30.4163 50.3444 32.9V33.3125C50.3324 34.9961 50.3203 37.0922 51.4223 38.2465C51.8807 38.7257 52.5081 38.9966 53.1597 38.9841H53.1637ZM52.9224 33.3292V32.9C52.9224 31.8874 53.7147 31.0706 54.6919 31.0706C55.6652 31.0706 56.4575 31.8915 56.4575 32.9C56.4575 33.2167 56.0593 34.071 55.1786 34.9878C54.3421 35.8504 53.5618 36.2671 53.216 36.3129C52.9103 35.8295 52.9224 34.0293 52.9264 33.3334L52.9224 33.3292Z" fill="#A2B72B"/>
<path d="M34.8322 38.9841C35.4837 38.9924 36.1151 38.7257 36.5696 38.2465C37.6716 37.0922 37.6595 34.9961 37.6474 33.3125V32.9C37.6474 30.4122 35.7009 28.3994 33.2999 28.3994C30.9029 28.3994 28.9564 30.4163 28.9564 32.9C28.9564 35.4003 32.4111 38.9841 34.8282 38.9841H34.8322ZM33.3039 31.0706C34.2772 31.0706 35.0695 31.8915 35.0695 32.9V33.3292C35.0695 34.0251 35.0856 35.8212 34.7799 36.3088C34.4381 36.2712 33.6579 35.8545 32.8173 34.9836C31.9325 34.0668 31.5384 33.2042 31.5384 32.8958C31.5384 31.8832 32.3307 31.0664 33.308 31.0664L33.3039 31.0706Z" fill="#A2B72B"/>
</svg>
