<svg width="64" height="64" viewBox="0 0 64 64" fill="none" xmlns="http://www.w3.org/2000/svg">
<path d="M31.998 0.940674L0.936722 13.4399V17.1896L31.998 4.69043L63.0593 17.1896V13.4399L31.998 0.940674Z" fill="#FFF5EB"/>
<path d="M31.9978 4.69043L4.4996 15.753V59.3102H59.496V15.753L31.9978 4.69043Z" fill="#FFF5EB"/>
<path d="M2.81327 59.3103H61.1861C62.2227 59.3103 63.0627 60.1503 63.0627 61.1868C63.0627 62.2234 62.2227 63.0634 61.1861 63.0634H2.81327C1.77667 63.0634 0.936722 62.2234 0.936722 61.1868C0.936722 60.1503 1.77667 59.3103 2.81327 59.3103Z" fill="#FFF5EB"/>
<path d="M31.9979 41.8115C36.8309 41.8115 40.7473 45.7279 40.7473 50.561V59.3104H23.2484V50.561C23.2484 45.7279 27.1649 41.8115 31.9979 41.8115Z" fill="#EE6451"/>
<path d="M4.4996 15.7533V59.3104H9.49928V13.7434L4.4996 15.7533Z" fill="#FFF5EB"/>
<path d="M54.4967 13.7434V59.3104H59.4963V15.7533L54.4967 13.7434Z" fill="#FFF5EB"/>
<path d="M31.9979 22.1894L25.3916 26.0491C24.0651 26.8224 23.2484 28.2456 23.2484 29.7822V30.3655C23.2484 32.752 25.185 34.6885 27.5715 34.6885C28.7281 34.6885 29.838 34.2219 30.6513 33.3986L31.9979 32.0287L33.3444 33.3986C34.1577 34.2252 35.2676 34.6885 36.4242 34.6885C38.8108 34.6885 40.7473 32.752 40.7473 30.3655V29.7789C40.7473 28.2423 39.9307 26.8224 38.6041 26.0458L31.9979 22.186V22.1894Z" fill="#A2B72B"/>
<path d="M34.4977 14.6898C34.4977 16.0697 33.3778 18.4395 31.9979 18.4395C30.618 18.4395 29.498 16.0697 29.498 14.6898C29.498 13.3099 30.618 12.1899 31.9979 12.1899C33.3778 12.1899 34.4977 13.3099 34.4977 14.6898Z" fill="#A2B72B"/>
<path d="M43.2473 18.4395C43.2473 19.8194 40.8774 22.1893 39.4975 22.1893C38.1176 22.1893 38.2476 19.8194 38.2476 18.4395C38.2476 17.0596 39.3675 15.9397 40.7474 15.9397C42.1273 15.9397 43.2473 17.0596 43.2473 18.4395Z" fill="#A2B72B"/>
<path d="M25.7483 18.4395C25.7483 19.8194 25.8783 22.1893 24.4984 22.1893C23.1185 22.1893 20.7486 19.8194 20.7486 18.4395C20.7486 17.0596 21.8686 15.9397 23.2485 15.9397C24.6284 15.9397 25.7483 17.0596 25.7483 18.4395Z" fill="#A2B72B"/>
<path d="M62.7093 18.0597C63.1892 18.253 63.7359 18.0197 63.9292 17.5397C63.9759 17.4264 63.9992 17.3064 63.9959 17.1831V13.4333C63.9959 13.05 63.7659 12.7034 63.4092 12.5567L32.3479 0.0674956C32.1246 -0.0224985 31.8713 -0.0224985 31.648 0.0674956L0.586647 12.5667C0.230003 12.71 -0.00329786 13.0567 3.52512e-05 13.4433V17.1931C3.52512e-05 17.7097 0.413338 18.133 0.933304 18.1363C1.05663 18.1363 1.17662 18.113 1.28995 18.0697L3.56645 17.1531V58.3737H2.8165C1.26327 58.3737 0.00335128 59.6336 0.00335128 61.1869C0.00335128 62.7401 1.26327 64 2.8165 64H61.1894C62.7426 64 64.0025 62.7401 64.0025 61.1869C64.0025 59.6336 62.7426 58.3737 61.1894 58.3737H60.4394V17.1431L62.7159 18.0597H62.7093ZM1.87658 14.0733L32.0013 1.94738L62.126 14.0733V15.8031L32.3513 3.82059C32.1279 3.73059 31.8746 3.73059 31.6513 3.82059L1.87658 15.8031V14.0733ZM41.6873 58.3737V50.5609C41.6873 45.2112 37.3509 40.8748 32.0013 40.8748C26.6516 40.8748 22.3152 45.2112 22.3152 50.5609V58.3737H10.4393V14.3766L32.0013 5.70047L53.5632 14.3766V58.3737H41.6873ZM39.8108 58.3737H24.1851V50.5609C24.1851 46.2478 27.6816 42.748 31.998 42.748C36.3143 42.748 39.8108 46.2445 39.8108 50.5609V58.3737ZM5.43635 16.3898L8.56281 15.1265V58.3737H5.43635V16.3898ZM62.1193 61.1869C62.1193 61.7035 61.6993 62.1235 61.1827 62.1235H2.80985C2.29322 62.1235 1.87325 61.7035 1.87325 61.1869C1.87325 60.6702 2.29322 60.2502 2.80985 60.2502H61.1827C61.6993 60.2502 62.1193 60.6702 62.1193 61.1869ZM58.5562 58.3737H55.4298V15.1265L58.5562 16.3831V58.3737Z" fill="#EE6451"/>
<path d="M39.0775 25.2391L32.4679 21.376C32.1746 21.206 31.8146 21.206 31.5246 21.376L24.9151 25.2358C23.3052 26.1824 22.3119 27.9089 22.3086 29.7755V30.3588C22.3086 33.2619 24.6618 35.6184 27.5649 35.6184C28.9748 35.6184 30.3281 35.0518 31.318 34.0452L31.998 33.3552L32.6779 34.0452C34.7144 36.1151 38.0442 36.1417 40.1174 34.1052C41.1207 33.1153 41.6873 31.7654 41.6873 30.3554V29.7721C41.684 27.9056 40.6907 26.1791 39.0808 25.2324L39.0775 25.2391ZM39.8075 30.3655C39.8075 32.2353 38.2942 33.7519 36.4243 33.7519C35.5177 33.7519 34.6478 33.3886 34.0112 32.742L32.6646 31.3654C32.3013 30.9954 31.708 30.9921 31.338 31.3554L31.328 31.3654L29.9814 32.742C28.6715 34.0752 26.5283 34.0919 25.1951 32.7786C24.5484 32.142 24.1851 31.2721 24.1851 30.3655V29.7822C24.1851 28.5789 24.8251 27.469 25.8617 26.859L31.998 23.2759L38.1342 26.859C39.1708 27.4656 39.8108 28.5789 39.8108 29.7822V30.3655H39.8075Z" fill="#A2B72B"/>
<path d="M31.998 19.3762C34.1312 19.3762 35.4344 16.3398 35.4344 14.6899C35.4344 12.79 33.8945 11.2534 31.998 11.2534C30.1014 11.2534 28.5615 12.7933 28.5615 14.6899C28.5615 16.3431 29.8681 19.3762 31.998 19.3762ZM31.998 13.1266C32.8612 13.1266 33.5579 13.8266 33.5612 14.6899C33.5612 15.7931 32.6113 17.503 31.998 17.503C31.3847 17.503 30.4347 15.7931 30.4347 14.6899C30.4347 13.8266 31.1347 13.13 31.998 13.1266Z" fill="#A2B72B"/>
<path d="M40.7473 14.9998C38.8508 14.9998 37.3142 16.5397 37.3109 18.4362V18.7629C37.3009 20.0728 37.2909 21.6993 38.1608 22.5759C38.5142 22.9326 38.9974 23.1326 39.5007 23.1259C41.384 23.1259 44.1871 20.3227 44.1871 18.4395C44.1871 16.543 42.6472 15.0064 40.7507 15.0031L40.7473 14.9998ZM39.4974 21.2493H39.4807C39.1674 20.9594 39.1808 19.3195 39.1841 18.7762V18.4362C39.1841 17.5729 39.8841 16.873 40.7473 16.873C41.6106 16.873 42.3106 17.5729 42.3106 18.4362C42.3106 19.3028 40.3674 21.2493 39.5007 21.2493H39.4974Z" fill="#A2B72B"/>
<path d="M25.8384 22.5759C26.7083 21.6993 26.695 20.0761 26.6883 18.7629V18.4362C26.6883 16.5363 25.1484 14.9998 23.2519 14.9998C21.3553 14.9998 19.8154 16.5397 19.8154 18.4362C19.8154 20.3328 22.6186 23.1226 24.5018 23.1226C25.0051 23.1292 25.4884 22.9326 25.8417 22.5726L25.8384 22.5759ZM21.6853 18.4362C21.6853 17.5729 22.3853 16.873 23.2486 16.873C24.1118 16.873 24.8118 17.5729 24.8118 18.4362V18.7762C24.8118 19.3195 24.8251 20.9594 24.5151 21.2493H24.5018C23.6352 21.2493 21.6886 19.3062 21.6886 18.4362H21.6853Z" fill="#A2B72B"/>
</svg>
