<svg width="64" height="64" viewBox="0 0 64 64" fill="none" xmlns="http://www.w3.org/2000/svg">
<path d="M52.4118 10.9929L53.0089 11.5899C53.9831 12.5642 53.9831 14.1465 53.0089 15.1245L50.6464 17.4869L46.5148 13.3554L48.8773 10.9929C49.8516 10.0186 51.4339 10.0186 52.4118 10.9929Z" fill="#FFF5EB"/>
<path d="M45.4821 12.3263L51.6795 18.5236C52.8186 19.6627 52.8186 21.5124 51.6795 22.6552L24.8207 49.514L14.4881 39.1814L41.3469 12.3226C42.486 11.1835 44.3357 11.1835 45.4785 12.3226L45.4821 12.3263Z" fill="#FFF5EB"/>
<path d="M30.4993 23.1707L27.4017 26.2683L37.7304 36.597L40.828 33.4994L30.4993 23.1707Z" fill="#EE6451"/>
<path d="M31.0196 29.8818L7.78009 53.1213L10.8777 56.2189L34.1172 32.9794L31.0196 29.8818Z" fill="#FFF5EB"/>
<path d="M12.9459 37.6284L26.3735 51.056C27.2306 51.9131 27.2306 53.2976 26.3735 54.1547C25.5164 55.0117 24.1319 55.0117 23.2749 54.1547L9.84728 40.7271C8.9902 39.87 8.9902 38.4855 9.84728 37.6284C10.7044 36.7713 12.0889 36.7713 12.9459 37.6284Z" fill="#EE6451"/>
<path d="M4.6827 50.0229L13.9787 59.3189C14.8358 60.176 14.8358 61.5605 13.9787 62.4176C13.1216 63.2747 11.7371 63.2747 10.88 62.4176L1.58403 53.1216C0.726953 52.2645 0.726953 50.88 1.58403 50.0229C2.44111 49.1659 3.82562 49.1659 4.6827 50.0229Z" fill="#FFF5EB"/>
<path d="M49.9213 63.0587C57.1672 63.0587 63.0412 57.1847 63.0412 49.9388C63.0412 42.6928 57.1672 36.8188 49.9213 36.8188C42.6754 36.8188 36.8014 42.6928 36.8014 49.9388C36.8014 57.1847 42.6754 63.0587 49.9213 63.0587Z" fill="#FFF5EB"/>
<path d="M49.9212 48.9683L44.7824 51.968C43.7495 52.5724 43.1159 53.6785 43.1195 54.8763V55.3341C43.1195 57.1911 44.6286 58.6928 46.4856 58.6892C47.3866 58.6892 48.2473 58.3302 48.881 57.6892L49.9212 56.627L50.9688 57.6929C51.6024 58.3339 52.4632 58.6928 53.3642 58.6928C55.2212 58.6928 56.7229 57.1874 56.7229 55.3341V54.8799C56.7229 53.6859 56.0893 52.5797 55.06 51.979L49.9212 48.9719V48.9683Z" fill="#A2B72B"/>
<path d="M51.8625 43.137C51.8625 44.2102 50.9871 46.0526 49.9176 46.0526C48.848 46.0526 47.9727 44.2102 47.9727 43.137C47.9727 42.0639 48.8407 41.1921 49.9139 41.1921C50.9871 41.1921 51.8588 42.0602 51.8588 43.1334L51.8625 43.137Z" fill="#A2B72B"/>
<path d="M58.6642 46.0527C58.6642 47.1258 56.8218 48.9682 55.7487 48.9682C54.6755 48.9682 54.778 47.1258 54.778 46.0527C54.7524 44.9795 55.5985 44.0858 56.6717 44.0601C57.7448 44.0345 58.6386 44.8806 58.6642 45.9538C58.6642 45.9867 58.6642 46.0197 58.6642 46.0527Z" fill="#A2B72B"/>
<path d="M45.0607 46.0527C45.0607 47.1258 45.1633 48.9682 44.0901 48.9682C43.0169 48.9682 41.1746 47.1295 41.1746 46.0527C41.1489 44.9795 41.995 44.0858 43.0682 44.0601C44.1414 44.0345 45.0351 44.8806 45.0607 45.9538C45.0607 45.9867 45.0607 46.0197 45.0607 46.0527Z" fill="#A2B72B"/>
<path d="M26.1464 49.5029L52.3386 23.3144C53.844 21.8053 53.844 19.3659 52.3386 17.8569L51.965 17.4833L53.6682 15.7801C54.8696 14.5788 55.0124 12.6778 54.0052 11.3116L63.7041 1.62367C64.0813 1.27205 64.1033 0.678686 63.7517 0.297762C63.4001 -0.0794996 62.8067 -0.101476 62.4258 0.250146C62.4111 0.264797 62.3928 0.279448 62.3782 0.297762L52.6829 9.98935C51.313 8.9821 49.4158 9.12495 48.2144 10.3263L46.5112 12.0295L46.1376 11.6559C44.6322 10.1505 42.1892 10.1468 40.6838 11.6559L14.4989 37.8518L13.6125 36.9654C12.3892 35.7457 10.4113 35.7457 9.18796 36.9654C7.96827 38.1887 7.96827 40.1666 9.18796 41.39L13.6858 45.8878L7.77781 51.7958L5.34209 49.3601C4.11874 48.1367 2.14087 48.1367 0.917514 49.3601C-0.305838 50.5834 -0.305838 52.5613 0.917514 53.7846L10.2135 63.0807C11.4369 64.304 13.4148 64.304 14.6381 63.0807C15.8615 61.8573 15.8615 59.8794 14.6381 58.6561L12.2024 56.2204L18.1067 50.3124L22.6046 54.8102C23.8242 56.0336 25.8058 56.0336 27.0291 54.8102C28.2525 53.5869 28.2525 51.609 27.0291 50.3856L26.1464 49.4992V49.5029ZM22.5313 45.8915L34.1129 34.3062L36.4021 36.5954L24.8168 48.1807L22.5313 45.8915ZM28.7286 26.2629L30.5014 24.4901L39.5044 33.4931L37.7353 35.2695L28.7286 26.2629ZM32.7906 32.9767L21.2054 44.5655L19.4326 42.7928L31.0178 31.2076L32.7906 32.9767ZM49.533 11.6486C50.1446 11.0406 51.1336 11.0406 51.7416 11.6486L52.3386 12.2456C52.9466 12.8573 52.9466 13.8462 52.3386 14.4542L50.6391 16.1611L47.8335 13.3554L49.533 11.6486ZM42.006 12.9818C42.7789 12.209 44.0315 12.2053 44.808 12.9781H44.8117L51.009 19.1791C51.7819 19.9556 51.7819 21.212 51.009 21.9848L40.8266 32.1672L31.8236 23.1642L42.006 12.9818ZM27.4027 27.5924L29.6919 29.8853L18.1067 41.4669L15.8175 39.1777L27.4027 27.5924ZM13.3122 61.7548C12.8251 62.2456 12.0339 62.2456 11.5468 61.7621L11.5394 61.7548L2.24342 52.4587C1.75262 51.9716 1.75262 51.1804 2.2361 50.6933L2.24342 50.686C2.73057 50.1952 3.52172 50.1952 4.00886 50.6786L4.01619 50.686L13.3122 59.982C13.477 60.3226 12.7555 61.0662 13.3122 61.7548ZM10.8728 54.8945L9.10372 53.1253L15.008 47.2137L16.7808 48.9865L10.8692 54.8908L10.8728 54.8945ZM25.7032 53.4916C25.2161 53.9824 24.4249 53.9824 23.9378 53.499L23.9305 53.4916L10.5065 40.064C10.0157 39.5732 10.0157 38.7784 10.5065 38.2913C10.9974 37.8041 11.7922 37.8005 12.2793 38.2913L25.7069 51.7189C26.1977 52.206 26.2014 52.9972 25.7142 53.4843L25.7069 53.4916H25.7032Z" fill="#EE6451"/>
<path d="M49.9212 35.8848C42.1599 35.8848 35.8636 42.1773 35.8636 49.9423C35.8636 57.7073 42.1562 63.9999 49.9212 63.9999C57.6862 63.9999 63.9788 57.7073 63.9788 49.9423C63.9715 42.1847 57.6825 35.8958 49.9212 35.8848ZM49.9212 62.1246C43.1928 62.1246 37.739 56.6708 37.739 49.9423C37.739 43.2139 43.1928 37.7601 49.9212 37.7601C56.6496 37.7601 62.1035 43.2139 62.1035 49.9423C62.0961 56.6671 56.646 62.1173 49.9212 62.1246Z" fill="#EE6451"/>
<path d="M55.5289 51.1621L50.3901 48.1623C50.0971 47.9902 49.7382 47.9902 49.4451 48.1623L44.3063 51.1621C42.9877 51.9349 42.1783 53.3487 42.1746 54.8761V55.3339C42.1746 57.7074 44.0976 59.6303 46.471 59.6303C47.6248 59.6303 48.7273 59.1688 49.5367 58.3447L49.9103 57.9601L50.2839 58.3447C51.9468 60.0369 54.6682 60.0589 56.3604 58.3923C57.1808 57.5865 57.6423 56.4804 57.6423 55.3303V54.8724C57.6423 53.3451 56.8365 51.9349 55.5216 51.1584L55.5289 51.1621ZM55.778 55.3266C55.778 56.6635 54.6938 57.7477 53.3569 57.7477C52.7086 57.7477 52.086 57.4876 51.6318 57.0261L50.5843 55.9603C50.2216 55.5903 49.6283 55.5867 49.2583 55.9493L49.2474 55.9603L48.1998 57.0261C47.2585 57.9784 45.7238 57.9894 44.7715 57.0518C44.31 56.5976 44.0499 55.9749 44.0499 55.3266V54.8761C44.0499 54.0154 44.5078 53.2205 45.2513 52.7847L49.914 50.0596L54.5766 52.7847C55.3202 53.2205 55.778 54.0154 55.7817 54.8761V55.3266H55.778Z" fill="#A2B72B"/>
<path d="M49.9213 46.9902C51.6537 46.9902 52.8038 44.6716 52.8038 43.137C52.8038 41.5473 51.5146 40.2544 49.9249 40.2544C48.3353 40.2544 47.0424 41.5437 47.0424 43.1333C47.0424 44.668 48.1925 46.9865 49.9249 46.9865L49.9213 46.9902ZM49.9213 42.1297C50.478 42.1297 50.9285 42.5802 50.9285 43.137C50.9285 44.0124 50.196 45.1148 49.9213 45.1148C49.6466 45.1148 48.914 44.016 48.914 43.137C48.914 42.5802 49.3645 42.1297 49.9213 42.1297Z" fill="#A2B72B"/>
<path d="M53.8403 46.0526V46.3017C53.833 47.3566 53.8257 48.6752 54.5582 49.4114C54.8732 49.73 55.3018 49.9058 55.7486 49.8985C57.3346 49.8985 59.6018 47.6313 59.6018 46.0453C59.6348 44.4557 58.3711 43.1371 56.7815 43.1041C55.1919 43.0712 53.8733 44.3348 53.8403 45.9244C53.8403 45.9647 53.8403 46.005 53.8403 46.0453V46.0526ZM57.7265 46.0526C57.7265 46.5764 56.4555 47.8767 55.8512 48.0195C55.7047 47.6642 55.712 46.7009 55.7156 46.32V46.0563C55.6973 45.4996 56.1295 45.0344 56.6863 45.0161C57.243 44.9978 57.7082 45.43 57.7265 45.9867C57.7265 46.0087 57.7265 46.0343 57.7265 46.0563V46.0526Z" fill="#A2B72B"/>
<path d="M45.2769 49.4187C46.0131 48.6788 46.0057 47.3639 45.9984 46.309V46.06C46.0314 44.4703 44.7677 43.1518 43.1781 43.1188C41.5885 43.0858 40.2699 44.3495 40.2369 45.9391C40.2369 45.9794 40.2369 46.0197 40.2369 46.06C40.2369 47.6459 42.5042 49.9132 44.0901 49.9132C44.537 49.9168 44.9655 49.741 45.2769 49.4224V49.4187ZM42.1086 46.0563C42.0903 45.4996 42.5225 45.0344 43.0792 45.0161C43.636 44.9978 44.1011 45.43 44.1194 45.9867C44.1194 46.0087 44.1194 46.0343 44.1194 46.0563V46.32C44.1194 46.7046 44.1268 47.6642 43.9839 48.0195C43.3759 47.8804 42.1086 46.5764 42.1086 46.0526V46.0563Z" fill="#A2B72B"/>
</svg>
