<svg width="64" height="64" viewBox="0 0 64 64" fill="none" xmlns="http://www.w3.org/2000/svg">
<path d="M63.0664 0.937012H0.936951V44.6879H63.0664V0.937012Z" fill="#FFF5EB"/>
<path d="M4.68781 37.1892V8.43867C6.75956 8.43867 8.43873 6.7595 8.43873 4.68774H55.5678C55.5678 6.7595 57.247 8.43867 59.3187 8.43867V37.1892C57.247 37.1892 55.5678 38.8684 55.5678 40.9401H8.43873C8.43873 38.8684 6.75956 37.1892 4.68781 37.1892Z" fill="#FFF5EB"/>
<path d="M46.9574 58.0684L40.7521 57.3196L38.2976 63.0664L29.5455 47.9109L38.2053 42.9097L46.9574 58.0684Z" fill="#FFF5EB"/>
<path d="M17.0457 58.0684L23.2511 57.3196L25.7055 63.0664L34.4577 47.9109L25.7946 42.9097L17.0457 58.0684Z" fill="#FFF5EB"/>
<path d="M32 54.6902C37.5224 54.6902 41.9991 50.2135 41.9991 44.6911C41.9991 39.1687 37.5224 34.6919 32 34.6919C26.4776 34.6919 22.0008 39.1687 22.0008 44.6911C22.0008 50.2135 26.4776 54.6902 32 54.6902Z" fill="#FFF5EB"/>
<path d="M31.9999 50.9428C35.4525 50.9428 38.2515 48.1439 38.2515 44.6912C38.2515 41.2386 35.4525 38.4397 31.9999 38.4397C28.5473 38.4397 25.7484 41.2386 25.7484 44.6912C25.7484 48.1439 28.5473 50.9428 31.9999 50.9428Z" fill="#EE6451"/>
<path d="M19.6884 18.5798L13.813 22.0108C12.6353 22.7003 11.9095 23.9638 11.9095 25.3295V25.8508C11.9095 27.972 13.6282 29.6941 15.7495 29.6941C16.7788 29.6941 17.7652 29.2817 18.4876 28.546L19.6852 27.3287L20.8827 28.546C21.6051 29.2817 22.5948 29.6941 23.6241 29.6941C25.7454 29.6941 27.4641 27.9753 27.4641 25.8541V25.3328C27.4641 23.9671 26.7384 22.7036 25.5606 22.0141L19.6852 18.5831L19.6884 18.5798Z" fill="#A2B72B"/>
<path d="M21.9116 11.9127C21.9116 13.1399 20.912 15.2447 19.6881 15.2447C18.4642 15.2447 17.4646 13.1399 17.4646 11.9127C17.4646 10.6855 18.4576 9.68921 19.6848 9.68921C20.912 9.68921 21.9083 10.6822 21.9083 11.9094L21.9116 11.9127Z" fill="#A2B72B"/>
<path d="M29.6874 15.2446C29.6874 16.4718 27.5826 18.5799 26.3521 18.5799C25.1216 18.5799 25.2404 16.4751 25.2404 15.2446C25.2404 14.0174 26.2366 13.0211 27.4639 13.0244C28.6911 13.0244 29.6841 14.0207 29.6841 15.2446H29.6874Z" fill="#A2B72B"/>
<path d="M14.1328 15.2446C14.1328 16.4718 14.2483 18.5799 13.021 18.5799C11.7938 18.5799 9.68579 16.4751 9.68579 15.2446C9.68579 14.0174 10.6821 13.0211 11.9093 13.0244C13.1365 13.0244 14.1295 14.0207 14.1295 15.2446H14.1328Z" fill="#A2B72B"/>
<path d="M63.0664 0H0.936906C0.418968 0 0 0.418978 0 0.936916V44.6878C0 45.2058 0.418968 45.6248 0.936906 45.6248H21.1035C21.1794 46.5089 21.3608 47.3765 21.6478 48.2177L16.2309 57.5934C15.9736 58.0421 16.1287 58.6161 16.5773 58.8767C16.7522 58.979 16.9567 59.0186 17.1579 58.9955L22.6639 58.3324L24.8412 63.4326C24.9798 63.7592 25.2932 63.9769 25.6462 64H25.7023C26.0388 64 26.3456 63.8219 26.5138 63.5316L31.0994 55.5876C31.3963 55.614 31.6965 55.6239 31.9967 55.6239C32.2969 55.6239 32.5971 55.6107 32.894 55.5876L37.4796 63.5316C37.6478 63.8219 37.9579 64 38.2911 64H38.3472C38.7002 63.9769 39.0136 63.7592 39.1522 63.4326L41.3295 58.3324L46.8355 59.0054C47.3501 59.0681 47.8186 58.6986 47.8779 58.1839C47.901 57.9827 47.8614 57.7815 47.7592 57.6033L42.3423 48.2276C42.6293 47.3864 42.814 46.5122 42.8866 45.6281H63.0532C63.5711 45.6281 63.9901 45.2091 63.9901 44.6911V0.940218C63.9901 0.42228 63.5711 0.00330219 63.0532 0.00330219L63.0664 0ZM32.0033 33.7518C27.7806 33.7584 23.9406 36.1897 22.1262 40.0033H9.2833C8.90392 38.1625 7.46557 36.7274 5.62804 36.3481V9.2833C7.46887 8.90392 8.90392 7.46559 9.2833 5.62806H54.7233C55.1027 7.46888 56.541 8.90392 58.3786 9.2833V36.3481C56.5377 36.7274 55.1027 38.1658 54.7233 40.0033H41.8837C40.0693 36.1897 36.226 33.7551 32.0033 33.7518ZM25.8342 60.9748L24.1155 56.9501C23.9505 56.5674 23.5546 56.3398 23.139 56.386L18.7942 56.9105L22.6144 50.2961C24.0693 52.7274 26.4049 54.5056 29.1398 55.2511L25.8342 60.9715V60.9748ZM22.941 44.6911C22.941 39.6866 26.9988 35.6289 32.0033 35.6289C37.0078 35.6289 41.0656 39.6866 41.0656 44.6911C41.0656 49.6957 37.0078 53.7534 32.0033 53.7534C26.9988 53.7468 22.9443 49.6924 22.941 44.6911ZM45.2124 56.9105L40.8676 56.386C40.4553 56.3365 40.0561 56.5641 39.8911 56.9501L38.1724 60.9748L34.8668 55.2544C37.5984 54.5089 39.9373 52.734 41.3922 50.3027L45.2124 56.9105ZM62.1328 43.7509H42.9031C42.8503 43.1175 42.7381 42.4907 42.5765 41.8771H55.5711C56.0891 41.8771 56.508 41.4582 56.508 40.9402C56.508 39.3864 57.7683 38.1295 59.3221 38.1262C59.84 38.1262 60.259 37.7072 60.259 37.1893V8.43877C60.259 7.92083 59.84 7.50187 59.3221 7.50187C57.7683 7.50187 56.5113 6.24166 56.508 4.68784C56.508 4.1699 56.0891 3.75095 55.5711 3.75095H8.44206C7.92412 3.75095 7.50516 4.1699 7.50516 4.68784C7.50516 6.24166 6.24495 7.49857 4.69113 7.50187C4.1732 7.50187 3.75423 7.92083 3.75423 8.43877V37.1893C3.75423 37.7072 4.1732 38.1262 4.69113 38.1262C6.24495 38.1262 7.50186 39.3864 7.50516 40.9402C7.50516 41.4582 7.92412 41.8771 8.44206 41.8771H21.4367C21.2718 42.4907 21.1629 43.1175 21.1101 43.7509H1.88042V1.87383H62.1328V43.7509Z" fill="#EE6451"/>
<path d="M32.0001 37.5027C28.0314 37.5027 24.8116 40.7192 24.8116 44.6911C24.8116 48.6631 28.0281 51.8796 32.0001 51.8796C35.9721 51.8796 39.1886 48.6631 39.1886 44.6911C39.1853 40.7225 35.9688 37.506 32.0001 37.5027ZM32.0001 50.0025C29.0673 50.0025 26.6888 47.6239 26.6888 44.6911C26.6888 41.7583 29.0673 39.3798 32.0001 39.3798C34.9329 39.3798 37.3114 41.7583 37.3114 44.6911C37.3081 47.6239 34.9329 49.9992 32.0001 50.0025Z" fill="#EE6451"/>
<path d="M26.0353 21.2024L20.1598 17.7715C19.8695 17.5999 19.5066 17.5999 19.2163 17.7715L13.3408 21.2024C11.8728 22.0601 10.9722 23.6304 10.9656 25.3261V25.8474C10.9656 28.4865 13.1033 30.6276 15.7425 30.6276C17.0258 30.6276 18.253 30.1129 19.1536 29.1991L19.6815 28.6614L20.2093 29.1991C22.06 31.0795 25.0852 31.1059 26.9689 29.2552C27.8827 28.3579 28.3973 27.1273 28.3973 25.8441V25.3261C28.3973 23.6304 27.4967 22.0601 26.0386 21.1991L26.0353 21.2024ZM26.5301 25.8474C26.5301 27.4507 25.2303 28.7537 23.6237 28.7504C22.8452 28.7504 22.0996 28.437 21.5553 27.8828L20.3577 26.6655C19.9949 26.296 19.401 26.2927 19.0316 26.6556L19.0217 26.6655L17.8241 27.8828C16.6992 29.0276 14.8584 29.0408 13.7169 27.9158C13.1627 27.3715 12.8493 26.6259 12.8493 25.8474V25.3261C12.8493 24.2935 13.4002 23.3401 14.2876 22.8189L19.6881 19.6651L25.0885 22.8189C25.9792 23.3401 26.5235 24.2935 26.5268 25.3261V25.8474H26.5301Z" fill="#A2B72B"/>
<path d="M19.6882 16.1815C21.6478 16.1815 22.8487 13.4169 22.8487 11.9126C22.8487 10.1675 21.4334 8.7522 19.6882 8.7522C17.9431 8.7522 16.5278 10.1675 16.5278 11.9126C16.5278 13.4202 17.7287 16.1848 19.6882 16.1848V16.1815ZM19.6882 10.626C20.3975 10.626 20.9715 11.2 20.9748 11.9126C20.9748 12.899 20.1435 14.3077 19.6882 14.3077C19.233 14.3077 18.4016 12.899 18.4016 11.9126C18.4016 11.2033 18.9757 10.6293 19.6882 10.626Z" fill="#A2B72B"/>
<path d="M27.4673 12.0842C25.7221 12.0842 24.3102 13.4995 24.3069 15.2446V15.535C24.3003 16.716 24.2904 18.1873 25.092 18.9989C25.4252 19.3354 25.8838 19.5234 26.3555 19.5168C28.104 19.5168 30.6277 17.003 30.6277 15.2446C30.6277 13.4995 29.2091 12.0875 27.4673 12.0842ZM27.8203 16.7094C27.2133 17.3164 26.6458 17.6067 26.3918 17.6397C26.1708 17.2999 26.1774 16.0364 26.1807 15.5481V15.2446C26.1807 14.5354 26.758 13.9613 27.4673 13.9613C28.1766 13.9613 28.7506 14.5354 28.7506 15.2446C28.7506 15.4657 28.4636 16.0661 27.8203 16.7094Z" fill="#A2B72B"/>
<path d="M14.2879 19.002C15.0896 18.1938 15.0797 16.7225 15.0731 15.5381V15.2478C15.0731 13.5027 13.6578 12.0874 11.9127 12.0874C10.1675 12.0874 8.75226 13.5027 8.75226 15.2478C8.75226 16.993 11.2661 19.52 13.0244 19.52C13.4995 19.5266 13.9547 19.3385 14.2879 19.002ZM11.5597 16.7159C10.9164 16.0726 10.6261 15.4656 10.6261 15.2511C10.6261 14.5418 11.2034 13.9678 11.9127 13.9678C12.622 13.9678 13.196 14.5418 13.196 15.2511V15.5546C13.196 16.0429 13.2059 17.3031 12.9848 17.6462C12.7407 17.6132 12.17 17.3229 11.5597 16.7126V16.7192V16.7159Z" fill="#A2B72B"/>
<path d="M35.5629 15.6272H54.3142C54.8322 15.6272 55.2511 15.2083 55.2511 14.6903C55.2511 14.1724 54.8322 13.7534 54.3142 13.7534H35.5629C35.0449 13.7534 34.626 14.1724 34.626 14.6903C34.626 15.2083 35.0449 15.6272 35.5629 15.6272Z" fill="#EE6451"/>
<path d="M55.2511 18.4379C55.2511 17.9199 54.8322 17.501 54.3142 17.501H35.5629C35.0449 17.501 34.626 17.9199 34.626 18.4379C34.626 18.9558 35.0449 19.3748 35.5629 19.3748H54.3142C54.8322 19.3748 55.2511 18.9558 55.2511 18.4379Z" fill="#EE6451"/>
<path d="M54.3142 22.5022H48.089C47.5711 22.5022 47.1521 22.9212 47.1521 23.4391C47.1521 23.9571 47.5711 24.376 48.089 24.376H54.3142C54.8321 24.376 55.2511 23.9571 55.2511 23.4391C55.2511 22.9212 54.8321 22.5022 54.3142 22.5022Z" fill="#EE6451"/>
<path d="M43.0649 22.5022C42.547 22.5022 42.128 22.9212 42.128 23.4391C42.128 23.9571 42.547 24.376 43.0649 24.376H44.3152C44.8331 24.376 45.2521 23.9571 45.2521 23.4391C45.2521 22.9212 44.8331 22.5022 44.3152 22.5022H43.0649Z" fill="#EE6451"/>
<path d="M55.2513 27.1901C55.2513 26.6722 54.8323 26.2532 54.3144 26.2532H43.0649C42.547 26.2532 42.128 26.6722 42.128 27.1901C42.128 27.708 42.547 28.127 43.0649 28.127H54.3144C54.8323 28.127 55.2513 27.708 55.2513 27.1901Z" fill="#EE6451"/>
</svg>
