<svg width="193" height="61" viewBox="0 0 193 61" fill="none" xmlns="http://www.w3.org/2000/svg">
<path d="M65.3784 28.144H63.5064C63.2184 28.144 63.0424 27.968 62.9784 27.616C62.8984 27.424 62.8584 27.104 62.8584 26.656C62.8584 25.952 62.8504 25.296 62.8344 24.688C62.8344 24.064 62.8264 23.48 62.8104 22.936C62.7944 22.152 62.7784 21.352 62.7624 20.536C62.7464 19.704 62.7384 18.848 62.7384 17.968V12.688C62.7384 12.544 62.8024 12.408 62.9304 12.28C63.0744 12.136 63.2184 12.064 63.3624 12.064L66.1224 12.088C66.3784 12.088 66.6744 12.096 67.0104 12.112C67.3464 12.112 67.7224 12.112 68.1384 12.112C68.7464 12.112 69.2824 12.112 69.7464 12.112C70.2104 12.112 70.6024 12.104 70.9224 12.088L71.8104 12.064C72.2904 12.048 72.7304 12.04 73.1304 12.04C73.5304 12.024 73.8824 12.016 74.1864 12.016C75.1944 12.016 76.1864 12.176 77.1624 12.496C78.1544 12.8 78.9944 13.336 79.6824 14.104C80.4344 14.952 80.8104 16.096 80.8104 17.536C80.8104 19.968 80.1944 21.728 78.9624 22.816C77.8904 23.84 76.2664 24.352 74.0904 24.352H70.8024C70.8184 24.528 70.8264 24.72 70.8264 24.928C70.8264 25.12 70.8264 25.32 70.8264 25.528V26.032C70.8264 26.144 70.8184 26.264 70.8024 26.392C70.8024 26.52 70.8024 26.672 70.8024 26.848C70.8024 27.376 70.6984 27.712 70.4904 27.856C70.2984 28 69.9624 28.072 69.4824 28.072C69.1304 28.072 68.8264 28.072 68.5704 28.072C68.3304 28.072 68.1464 28.08 68.0184 28.096C67.4744 28.096 66.9784 28.104 66.5304 28.12C66.0824 28.136 65.6984 28.144 65.3784 28.144ZM71.4264 21.712H72.1224C72.4904 21.712 72.7544 21.448 72.9144 20.92C73.0744 20.376 73.1784 19.68 73.2264 18.832C73.2424 18.608 73.2504 18.368 73.2504 18.112C73.2664 17.84 73.2744 17.56 73.2744 17.272V17.008C73.2744 16.752 73.2344 16.432 73.1544 16.048C73.0744 15.648 72.9944 15.368 72.9144 15.208C72.8344 15.032 72.7464 14.896 72.6504 14.8C72.5544 14.704 72.4264 14.656 72.2664 14.656C72.1704 14.656 72.0104 14.64 71.7864 14.608C71.5784 14.576 71.4504 14.608 71.4024 14.704C71.2104 14.992 71.1224 15.416 71.1384 15.976C71.1704 16.536 71.1624 17.24 71.1144 18.088C71.0824 18.792 71.0504 19.344 71.0184 19.744C71.0024 20.144 70.9944 20.48 70.9944 20.752C71.0104 21.024 71.0184 21.32 71.0184 21.64C71.0184 21.64 71.0504 21.656 71.1144 21.688L71.4264 21.712ZM88.6633 13.744C88.7273 13.744 88.7993 13.752 88.8793 13.768C88.9593 13.768 89.0553 13.776 89.1673 13.792C89.1993 13.792 89.2553 13.8 89.3353 13.816C89.4153 13.816 89.5033 13.816 89.5993 13.816C89.9353 13.816 90.5513 13.952 91.4473 14.224H91.5913C91.7033 14.224 91.7913 14.248 91.8553 14.296C91.8713 14.312 91.8873 14.336 91.9033 14.368C91.9193 14.384 91.9353 14.392 91.9513 14.392C92.0313 14.392 92.0793 14.416 92.0953 14.464L92.5513 14.848C93.3353 15.52 93.9273 16.44 94.3273 17.608C94.6953 18.68 94.8793 19.8 94.8793 20.968L94.6873 21.424L88.2553 21.544L87.5593 21.568L87.5833 22.192L87.6793 22.768L87.8953 23.344L88.5193 23.896C88.6953 24.04 88.9433 24.16 89.2633 24.256C89.5993 24.352 89.9433 24.4 90.2953 24.4H90.4153C90.6873 24.4 91.0233 24.344 91.4233 24.232C91.8233 24.104 92.2473 23.984 92.6953 23.872L94.0393 23.536L94.3273 23.896L94.7593 26.944L94.4953 27.376C93.7593 27.728 93.0953 28 92.5033 28.192C91.9113 28.384 91.3593 28.512 90.8473 28.576C90.3993 28.624 90.0073 28.664 89.6713 28.696C89.3513 28.744 89.0473 28.768 88.7593 28.768C88.2793 28.768 87.8473 28.72 87.4633 28.624C87.0793 28.528 86.6793 28.456 86.2633 28.408C85.6713 28.344 85.1113 28.144 84.5833 27.808C83.4633 26.944 82.6393 25.992 82.1113 24.952C81.5993 23.896 81.3273 22.64 81.2953 21.184C81.2633 19.536 81.5833 18.096 82.2553 16.864L82.3753 16.456C82.4393 16.424 82.4713 16.4 82.4713 16.384C82.4873 16.352 82.5033 16.336 82.5193 16.336L82.5673 16.24L82.7113 16.144C83.2713 15.088 84.1753 14.368 85.4233 13.984C86.1753 13.824 87.2553 13.744 88.6633 13.744ZM88.6633 16.648C88.6153 16.648 88.5593 16.656 88.4953 16.672C88.4313 16.672 88.3833 16.712 88.3513 16.792C88.3193 16.888 88.2473 16.952 88.1353 16.984C88.0233 17.016 87.9433 17.216 87.8953 17.584C87.8473 17.984 87.7993 18.296 87.7513 18.52C87.7193 18.744 87.7833 18.856 87.9433 18.856L89.5273 18.832L89.4553 18.112L89.3833 17.656L89.2873 17.152C89.2873 17.088 89.2713 17.04 89.2393 17.008C89.2233 16.976 89.2073 16.928 89.1913 16.864L88.9513 16.696C88.8553 16.664 88.7593 16.648 88.6633 16.648ZM103.249 28.504C102.657 28.536 102.145 28.56 101.713 28.576C101.297 28.608 100.897 28.592 100.513 28.528C100.145 28.48 99.7453 28.368 99.3133 28.192C98.3053 27.76 97.5693 27.168 97.1053 26.416C96.6573 25.664 96.4173 24.632 96.3853 23.32H96.4093C96.4253 22.76 96.4333 22.184 96.4333 21.592C96.4493 20.984 96.4653 20.432 96.4813 19.936C96.4973 19.424 96.5053 19.064 96.5053 18.856H95.6893C95.4493 18.856 95.2893 18.72 95.2093 18.448C95.1453 18.16 95.1133 17.792 95.1133 17.344C95.1293 16.896 95.1373 16.424 95.1373 15.928V15.616C95.1693 15.488 95.1853 15.384 95.1853 15.304C95.1853 15.224 95.1853 15.152 95.1853 15.088V14.608L95.2093 14.416L95.3053 14.32L95.4973 14.344H96.1453C96.3853 14.344 96.4973 14.344 96.4813 14.344C96.4653 14.344 96.4013 14.344 96.2893 14.344C96.1933 14.328 96.1213 14.32 96.0733 14.32H96.4813L96.5533 11.44C96.5853 11.36 96.5853 11.264 96.5533 11.152C96.5213 11.04 96.5293 10.944 96.5773 10.864C96.6413 10.768 96.8093 10.72 97.0813 10.72H99.8653C99.9773 10.736 100.105 10.744 100.249 10.744C100.393 10.744 100.561 10.744 100.753 10.744H101.353C101.433 10.712 101.489 10.696 101.521 10.696C101.569 10.696 101.617 10.696 101.665 10.696C101.729 10.68 101.785 10.672 101.833 10.672C101.881 10.656 101.929 10.648 101.977 10.648C102.457 10.632 102.697 10.984 102.697 11.704C102.697 12.168 102.681 12.624 102.649 13.072C102.617 13.504 102.585 13.904 102.553 14.272H103.393C103.473 14.272 103.561 14.272 103.657 14.272C103.753 14.272 103.833 14.28 103.897 14.296L104.473 14.32L104.545 14.368C104.577 14.384 104.593 14.408 104.593 14.44V18.352C104.593 18.464 104.521 18.576 104.377 18.688C104.249 18.784 104.089 18.848 103.897 18.88C103.641 18.816 103.489 18.776 103.441 18.76C103.393 18.728 103.329 18.712 103.249 18.712H102.433V19.48C102.433 20.424 102.433 21.08 102.433 21.448C102.433 21.816 102.441 22.016 102.457 22.048V22.72H102.481C102.545 23.408 102.689 23.84 102.913 24.016C103.153 24.176 103.625 24.2 104.329 24.088C104.553 24.168 104.665 24.48 104.665 25.024C104.665 25.104 104.665 25.2 104.665 25.312C104.665 25.424 104.665 25.624 104.665 25.912C104.681 26.2 104.697 26.672 104.713 27.328C104.681 27.424 104.673 27.568 104.689 27.76L104.665 28.12C104.601 28.12 104.553 28.136 104.521 28.168L104.401 28.312C104.369 28.344 104.345 28.36 104.329 28.36C104.265 28.36 104.177 28.368 104.065 28.384C103.953 28.416 103.809 28.448 103.633 28.48L103.249 28.504ZM105.747 26.416V26.344L105.771 25.816V20.728C105.771 20.104 105.771 19.656 105.771 19.384C105.771 19.096 105.771 18.904 105.771 18.808C105.787 18.712 105.803 18.624 105.819 18.544V17.608C105.851 17.08 105.875 16.664 105.891 16.36C105.923 16.04 105.939 15.728 105.939 15.424C105.939 14.912 105.979 14.56 106.059 14.368C106.155 14.16 106.315 14.056 106.539 14.056L108.027 14.08H110.259C110.339 14.096 110.467 14.112 110.643 14.128C110.835 14.128 111.059 14.128 111.315 14.128C111.731 14.128 112.059 14.2 112.299 14.344C112.475 14.424 112.563 14.848 112.563 15.616C113.267 14.72 114.475 14.272 116.187 14.272C117.243 14.272 118.155 14.56 118.923 15.136C119.707 15.696 120.307 16.496 120.723 17.536C121.155 18.576 121.371 19.808 121.371 21.232C121.371 21.728 121.307 22.296 121.179 22.936C121.051 23.576 120.883 24.176 120.675 24.736C120.467 25.296 120.251 25.728 120.027 26.032C119.387 26.88 118.723 27.504 118.035 27.904C117.347 28.304 116.579 28.504 115.731 28.504C114.755 28.504 113.979 28.408 113.403 28.216C112.827 28.024 112.379 27.704 112.059 27.256V30.712H112.035L112.059 32.08V33.304C112.059 33.592 111.651 33.736 110.835 33.736C110.675 33.736 110.539 33.736 110.427 33.736C110.315 33.736 110.219 33.728 110.139 33.712C110.011 33.696 109.899 33.68 109.803 33.664C109.723 33.648 109.643 33.64 109.563 33.64C109.435 33.624 109.195 33.608 108.843 33.592C108.491 33.592 108.171 33.592 107.883 33.592L107.787 33.688L106.491 33.592C106.187 33.608 105.979 33.568 105.867 33.472C105.771 33.392 105.723 33.288 105.723 33.16C105.723 33.048 105.723 32.952 105.723 32.872C105.723 31.368 105.723 30.08 105.723 29.008C105.739 27.952 105.747 27.088 105.747 26.416ZM113.691 24.184C113.931 24.136 114.099 23.92 114.195 23.536C114.275 23.216 114.323 22.92 114.339 22.648C114.371 22.376 114.387 22.096 114.387 21.808C114.419 21.68 114.443 21.504 114.459 21.28C114.475 21.056 114.483 20.728 114.483 20.296L114.459 20.152C114.459 20.072 114.443 20 114.411 19.936C114.395 19.872 114.387 19.816 114.387 19.768C114.339 19.224 114.195 18.792 113.955 18.472C113.715 18.136 113.419 17.968 113.067 17.968C112.891 17.968 112.763 18.136 112.683 18.472C112.603 18.808 112.499 19.272 112.371 19.864C112.355 20.072 112.331 20.384 112.299 20.8C112.267 21.2 112.251 21.504 112.251 21.712C112.267 21.888 112.275 22.112 112.275 22.384C112.291 22.656 112.315 22.928 112.347 23.2C112.379 23.456 112.411 23.656 112.443 23.8C112.459 24.056 112.555 24.216 112.731 24.28C112.907 24.328 113.227 24.296 113.691 24.184ZM126.159 28.672C124.655 28.736 123.527 28.424 122.775 27.736C122.023 27.032 121.615 25.928 121.551 24.424C121.535 23.784 121.591 23.272 121.719 22.888C121.863 22.504 122.159 22.056 122.607 21.544C123.087 20.968 123.631 20.56 124.239 20.32C124.847 20.064 125.663 19.928 126.687 19.912C127.087 19.896 127.431 19.888 127.719 19.888C128.023 19.872 128.255 19.872 128.415 19.888C128.879 19.904 129.239 19.904 129.495 19.888C129.447 19.392 129.287 19.04 129.015 18.832C128.855 18.704 128.631 18.616 128.343 18.568C128.055 18.52 127.639 18.488 127.095 18.472H125.175C125.015 18.472 124.927 18.48 124.911 18.496C124.911 18.496 124.839 18.496 124.695 18.496H124.503L123.087 18.664C122.863 18.584 122.751 18.272 122.751 17.728C122.751 17.632 122.751 17.536 122.751 17.44C122.751 17.328 122.751 17.144 122.751 16.888C122.751 16.616 122.735 16.192 122.703 15.616C122.735 15.504 122.743 15.36 122.727 15.184L122.751 14.824C122.815 14.824 122.863 14.808 122.895 14.776L123.015 14.632C123.031 14.6 123.055 14.584 123.087 14.584C123.151 14.584 123.239 14.576 123.351 14.56C123.479 14.528 123.623 14.496 123.783 14.464L124.311 14.368C124.439 14.336 124.535 14.32 124.599 14.32C125.047 14.224 125.343 14.16 125.487 14.128C125.647 14.096 125.847 14.072 126.087 14.056C126.999 14.008 127.895 14 128.775 14.032C129.655 14.048 130.439 14.096 131.127 14.176C131.831 14.256 132.343 14.368 132.663 14.512C133.655 14.912 134.383 15.496 134.847 16.264C135.311 17.016 135.559 18.056 135.591 19.384L135.687 22.888C135.703 23.336 135.719 23.736 135.735 24.088C135.751 24.424 135.759 24.656 135.759 24.784L135.783 25.312C135.719 25.632 135.671 25.912 135.639 26.152C135.623 26.376 135.623 26.624 135.639 26.896C135.671 27.376 135.647 27.712 135.567 27.904C135.503 28.08 135.367 28.176 135.159 28.192L131.271 28.312C131.143 28.28 130.839 28.272 130.359 28.288C130.183 28.304 130.031 28.288 129.903 28.24C129.775 28.208 129.647 28.168 129.519 28.12C129.295 28.024 129.183 27.784 129.183 27.4V27.112C129.183 27.08 129.191 27.056 129.207 27.04V26.968C129.175 26.936 129.151 26.92 129.135 26.92C128.815 27.416 128.375 27.824 127.815 28.144C127.271 28.464 126.719 28.64 126.159 28.672ZM127.983 24.832C128.703 24.832 129.167 24.448 129.375 23.68L129.399 23.224C129.415 22.904 129.319 22.608 129.111 22.336C128.903 22.048 128.679 21.912 128.439 21.928C128.135 21.944 127.871 22.08 127.647 22.336C127.439 22.592 127.351 22.88 127.383 23.2L127.479 24.112C127.607 24.592 127.775 24.832 127.983 24.832ZM140.943 28.36C140.143 28.36 139.519 28.336 139.071 28.288C138.623 28.24 138.231 28.16 137.895 28.048C137.799 28.048 137.735 28.008 137.703 27.928C137.639 27.784 137.607 27.624 137.607 27.448L137.343 23.392C137.311 22.944 137.287 22.528 137.271 22.144C137.255 21.76 137.239 21.344 137.223 20.896C137.223 20.432 137.223 19.888 137.223 19.264V18.568L137.247 17.56L137.295 16.36L137.343 15.472C137.343 15.2 137.343 15.032 137.343 14.968C137.343 14.888 137.351 14.824 137.367 14.776C137.367 14.728 137.399 14.704 137.463 14.704C137.607 14.704 137.751 14.672 137.895 14.608C137.927 14.608 137.959 14.608 137.991 14.608C138.023 14.608 138.071 14.6 138.135 14.584C138.167 14.584 138.207 14.584 138.255 14.584C138.319 14.584 138.367 14.592 138.399 14.608H141.783C142.023 14.608 142.183 14.608 142.263 14.608C142.343 14.608 142.415 14.616 142.479 14.632L143.223 14.656C143.415 14.672 143.551 14.688 143.631 14.704C143.727 14.72 143.799 14.776 143.847 14.872L144.039 15.544V17.128C144.423 16.488 145.119 15.816 146.127 15.112C146.543 14.808 146.951 14.624 147.351 14.56C147.751 14.496 148.087 14.432 148.359 14.368C148.551 14.32 148.711 14.352 148.839 14.464C148.967 14.56 149.031 14.712 149.031 14.92C149.031 16.92 148.983 18.32 148.887 19.12C148.791 19.904 148.615 20.288 148.359 20.272C148.071 20.256 147.759 20.216 147.423 20.152C147.103 20.072 146.727 20.032 146.295 20.032C145.639 20.032 145.087 20.208 144.639 20.56C144.207 20.896 143.991 21.32 143.991 21.832V27.832C143.991 27.912 143.975 27.96 143.943 27.976C143.927 27.992 143.919 28.032 143.919 28.096C143.903 28.16 143.863 28.192 143.799 28.192C143.815 28.192 143.791 28.208 143.727 28.24L143.607 28.288C142.983 28.288 142.391 28.312 141.831 28.36H140.943ZM165.572 25.384C165.7 25.544 165.764 25.688 165.764 25.816C165.764 25.976 165.716 26.104 165.62 26.2C165.492 26.312 165.396 26.408 165.332 26.488C165.268 26.568 165.188 26.632 165.092 26.68C164.884 26.696 164.724 26.768 164.612 26.896C164.516 27.024 164.38 27.128 164.204 27.208C164.14 27.224 164.004 27.296 163.796 27.424C163.588 27.552 163.388 27.672 163.196 27.784C163.02 27.88 162.94 27.904 162.956 27.856L162.524 28.216C162.396 28.296 162.3 28.368 162.236 28.432C162.188 28.512 162.052 28.592 161.828 28.672C161.556 28.88 161.276 28.84 160.988 28.552C160.972 28.52 160.9 28.424 160.772 28.264C160.66 28.104 160.54 27.944 160.412 27.784C160.3 27.608 160.22 27.512 160.172 27.496L159.908 27.256C159.828 27.144 159.788 27.088 159.788 27.088L157.916 24.712C157.868 24.616 157.812 24.536 157.748 24.472C157.7 24.392 157.652 24.336 157.604 24.304C157.556 24.256 157.516 24.216 157.484 24.184L156.98 23.368C156.916 23.32 156.868 23.296 156.836 23.296L156.164 23.968L156.092 25.792V26.488C156.092 26.648 156.084 26.728 156.068 26.728C156.068 26.728 156.068 26.752 156.068 26.8C156.052 26.848 156.036 26.896 156.02 26.944C156.02 26.992 156.02 27.104 156.02 27.28V27.88C156.02 28.04 155.98 28.128 155.9 28.144C155.852 28.192 155.764 28.208 155.636 28.192C155.476 28.208 155.292 28.216 155.084 28.216C154.876 28.216 154.588 28.216 154.22 28.216H151.628C151.42 28.216 151.308 28.208 151.292 28.192H151.172L150.308 28.096L150.236 27.904V26.392C150.22 26.28 150.204 26.136 150.188 25.96C150.188 25.784 150.188 25.624 150.188 25.48L150.14 23.608C150.124 23.352 150.108 23.096 150.092 22.84C150.092 22.568 150.076 22.312 150.044 22.072V21.544C150.044 21.32 150.036 21.128 150.02 20.968C150.004 20.792 149.996 20.648 149.996 20.536V20.344C150.028 20.28 150.044 20.192 150.044 20.08C150.044 19.968 150.044 19.736 150.044 19.384V18.952C150.044 18.856 150.044 18.8 150.044 18.784C150.044 18.752 150.036 18.728 150.02 18.712C150.004 18.696 149.996 18.656 149.996 18.592C149.996 18.464 150.004 18.376 150.02 18.328C150.036 18.296 150.044 18.144 150.044 17.872C150.044 17.6 150.044 17.152 150.044 16.528C150.044 15.888 150.044 15.024 150.044 13.936V10.528C150.028 10.448 150.012 10.376 149.996 10.312C149.996 10.248 149.996 10.184 149.996 10.12V9.904C149.948 9.616 150.092 9.432 150.428 9.352C150.62 9.32 150.772 9.304 150.884 9.304H155.972C156.148 9.304 156.26 9.416 156.308 9.64C156.324 9.656 156.332 9.68 156.332 9.712C156.332 9.728 156.332 9.792 156.332 9.904V10.216C156.332 10.296 156.356 10.384 156.404 10.48C156.468 10.576 156.532 10.76 156.596 11.032C156.66 11.304 156.692 11.76 156.692 12.4C156.708 12.816 156.7 13.336 156.668 13.96C156.636 14.568 156.58 15.312 156.5 16.192L156.452 16.72C156.436 16.8 156.428 16.936 156.428 17.128C156.428 17.32 156.428 17.656 156.428 18.136C156.508 18.04 156.604 17.92 156.716 17.776C156.844 17.616 156.98 17.456 157.124 17.296C157.156 17.296 157.324 17.176 157.628 16.936C157.932 16.68 158.284 16.376 158.684 16.024C159.372 15.416 159.932 14.92 160.364 14.536C160.796 14.136 161.212 13.768 161.612 13.432C161.724 13.368 161.844 13.36 161.972 13.408C162.1 13.44 162.228 13.504 162.356 13.6C162.516 13.712 162.66 13.84 162.788 13.984C162.916 14.112 163.012 14.216 163.076 14.296C163.236 14.456 163.324 14.576 163.34 14.656C163.372 14.72 163.396 14.776 163.412 14.824C163.428 14.872 163.5 14.936 163.628 15.016C163.804 15.176 163.932 15.28 164.012 15.328C164.092 15.36 164.204 15.488 164.348 15.712C164.476 15.856 164.596 15.976 164.708 16.072C164.82 16.168 164.908 16.296 164.972 16.456V16.48C164.972 16.56 164.908 16.688 164.78 16.864C164.668 17.024 164.452 17.24 164.132 17.512L162.116 19.336C162.116 19.352 162.116 19.368 162.116 19.384C162.132 19.384 162.124 19.408 162.092 19.456L161.756 19.696C161.724 19.728 161.66 19.768 161.564 19.816C161.468 19.864 161.42 19.952 161.42 20.08C161.516 20.192 161.612 20.32 161.708 20.464C161.804 20.592 161.916 20.696 162.044 20.776C162.156 20.824 162.268 20.944 162.38 21.136C162.508 21.328 162.636 21.52 162.764 21.712C162.908 21.904 163.06 22.04 163.22 22.12C163.38 22.344 163.604 22.664 163.892 23.08C164.196 23.496 164.5 23.92 164.804 24.352C165.124 24.768 165.38 25.112 165.572 25.384ZM157.172 17.224C157.204 17.192 157.204 17.192 157.172 17.224C157.14 17.256 157.124 17.28 157.124 17.296C157.108 17.296 157.124 17.272 157.172 17.224Z" fill="#EE6451"/>
<path d="M71.7383 50.84C71.3783 50.84 71.1383 50.72 70.8983 50.6C70.6583 50.48 70.4183 50.24 70.2983 50C70.1783 49.76 70.0583 49.4 70.0583 49.16C70.0583 48.8 70.1783 48.56 70.2983 48.32C70.4183 48.08 70.6583 47.84 70.8983 47.72C71.1383 47.6 71.4983 47.48 71.7383 47.48C72.0983 47.48 72.3383 47.6 72.5783 47.72C72.8183 47.84 73.0583 48.08 73.1783 48.32C73.2983 48.56 73.4183 48.92 73.4183 49.16C73.4183 49.52 73.2983 49.76 73.1783 50C73.0583 50.24 72.8183 50.48 72.5783 50.6C72.3383 50.72 72.0983 50.84 71.7383 50.84Z" fill="#EE6451"/>
<path d="M79.2983 53.96V43.88H82.5383C83.3783 43.88 83.9783 44 84.4583 44.24C84.9383 44.48 85.2983 44.84 85.5383 45.32C85.7783 45.8 85.8983 46.28 85.8983 46.88C85.8983 47.48 85.7783 47.96 85.5383 48.32C85.2983 48.68 84.9383 49.16 84.4583 49.4C83.9783 49.64 83.2583 49.76 82.5383 49.76H80.4983V53.96H79.2983ZM80.4983 48.8H82.5383C83.3783 48.8 83.9783 48.68 84.2183 48.32C84.4583 47.96 84.6983 47.48 84.6983 46.88C84.6983 46.28 84.5783 45.8 84.2183 45.44C83.8583 45.08 83.2583 44.96 82.5383 44.96H80.4983V48.8Z" fill="#EE6451"/>
<path d="M90.4583 53.96V43.88H96.6983V44.84H91.6583V48.32H96.2183V49.28H91.6583V52.88H96.6983V53.84H90.4583V53.96Z" fill="#EE6451"/>
<path d="M103.898 53.96V44.84H100.898V43.88H108.098V44.84H105.098V53.96H103.898Z" fill="#EE6451"/>
<path d="M115.658 54.08C114.938 54.08 114.218 53.96 113.738 53.72C113.138 53.48 112.778 53.12 112.418 52.64C112.178 52.16 111.938 51.56 111.938 50.96H113.258C113.258 51.32 113.378 51.68 113.498 52.04C113.738 52.4 113.978 52.64 114.338 52.88C114.698 53.12 115.178 53.12 115.658 53.12C116.138 53.12 116.498 53 116.858 52.88C117.218 52.76 117.458 52.52 117.578 52.28C117.698 52.04 117.818 51.68 117.818 51.44C117.818 51.08 117.698 50.72 117.578 50.48C117.458 50.24 117.218 50 116.858 49.88C116.618 49.76 116.258 49.64 115.898 49.52C115.538 49.4 115.178 49.28 114.698 49.16C113.858 48.92 113.258 48.56 112.898 48.2C112.538 47.6 112.418 47.12 112.418 46.4C112.418 45.8 112.538 45.32 112.778 44.96C113.018 44.6 113.378 44.24 113.858 44C114.338 43.76 114.938 43.64 115.538 43.64C116.138 43.64 116.738 43.76 117.218 44C117.698 44.24 118.058 44.6 118.298 44.96C118.538 45.32 118.658 45.92 118.658 46.4H117.338C117.338 46.16 117.218 45.8 117.098 45.56C116.978 45.32 116.738 45.08 116.498 44.84C116.258 44.6 115.778 44.6 115.418 44.6C115.058 44.6 114.698 44.6 114.458 44.84C114.218 44.96 113.978 45.2 113.738 45.44C113.618 45.68 113.498 45.92 113.498 46.28C113.498 46.64 113.618 46.88 113.738 47.12C113.858 47.36 114.098 47.48 114.338 47.6C114.578 47.72 114.938 47.84 115.298 47.96C115.658 48.08 116.018 48.2 116.498 48.32C116.978 48.44 117.458 48.68 117.818 48.92C118.178 49.16 118.538 49.4 118.658 49.88C118.898 50.24 119.018 50.72 119.018 51.32C119.018 51.8 118.898 52.28 118.658 52.64C118.418 53.12 118.058 53.36 117.578 53.72C117.098 53.96 116.498 54.08 115.658 54.08Z" fill="#EE6451"/>
<path d="M123.698 53.96V43.88H124.898V53.96H123.698ZM124.658 49.28V48.32H130.418V49.28H124.658ZM130.178 53.96V43.88H131.378V53.96H130.178Z" fill="#EE6451"/>
<path d="M140.858 54.08C139.898 54.08 139.058 53.84 138.338 53.48C137.618 53 137.018 52.4 136.658 51.68C136.298 50.84 136.058 50 136.058 48.92C136.058 47.84 136.298 47 136.658 46.16C137.018 45.32 137.618 44.72 138.338 44.36C139.058 43.88 139.898 43.64 140.858 43.64C141.818 43.64 142.658 43.88 143.378 44.36C144.098 44.84 144.698 45.44 145.058 46.16C145.418 46.88 145.658 47.84 145.658 48.92C145.658 50 145.418 50.84 145.058 51.68C144.698 52.52 144.098 53.12 143.378 53.48C142.778 53.84 141.818 54.08 140.858 54.08ZM140.858 53C141.578 53 142.178 52.88 142.778 52.52C143.378 52.16 143.738 51.68 144.098 51.08C144.458 50.48 144.578 49.76 144.578 48.8C144.578 47.96 144.458 47.24 144.098 46.52C143.738 45.92 143.378 45.44 142.778 45.08C142.178 44.72 141.578 44.6 140.858 44.6C140.138 44.6 139.538 44.72 138.938 45.08C138.338 45.44 137.978 45.92 137.618 46.52C137.258 47.12 137.138 47.84 137.138 48.8C137.138 49.64 137.258 50.36 137.618 51.08C137.978 51.68 138.338 52.16 138.938 52.52C139.538 52.88 140.138 53 140.858 53Z" fill="#EE6451"/>
<path d="M150.458 53.96V43.88H153.698C154.538 43.88 155.138 44 155.618 44.24C156.098 44.48 156.458 44.84 156.698 45.32C156.938 45.8 157.058 46.28 157.058 46.88C157.058 47.48 156.938 47.96 156.698 48.32C156.458 48.68 156.098 49.16 155.618 49.4C155.138 49.64 154.418 49.76 153.698 49.76H151.658V53.96H150.458ZM151.658 48.8H153.698C154.538 48.8 155.138 48.68 155.378 48.32C155.618 47.96 155.858 47.48 155.858 46.88C155.858 46.28 155.738 45.8 155.378 45.44C155.018 45.08 154.418 44.96 153.698 44.96H151.658V48.8Z" fill="#EE6451"/>
<path d="M167.018 50.84C166.658 50.84 166.418 50.72 166.178 50.6C165.938 50.48 165.698 50.24 165.578 50C165.458 49.76 165.338 49.4 165.338 49.16C165.338 48.8 165.458 48.56 165.578 48.32C165.698 48.08 165.938 47.84 166.178 47.72C166.418 47.6 166.778 47.48 167.018 47.48C167.378 47.48 167.618 47.6 167.858 47.72C168.098 47.84 168.338 48.08 168.458 48.32C168.578 48.56 168.698 48.92 168.698 49.16C168.698 49.52 168.578 49.76 168.458 50C168.338 50.24 168.098 50.48 167.858 50.6C167.618 50.84 167.258 50.84 167.018 50.84Z" fill="#EE6451"/>
<path d="M53.3783 44V28.88C53.3783 28.28 53.3783 27.8 53.0183 27.32C52.6583 26.84 52.1783 26.48 51.6983 26C48.0983 22.52 44.3783 18.92 40.7783 15.44C36.6983 11.48 32.6183 7.51995 28.4183 3.55995C27.9383 3.07995 27.0983 3.07995 26.6183 3.55995C22.6583 7.39995 18.6983 11.24 14.6183 15.08C11.9783 17.6 7.0583 22.28 4.4183 24.92C3.2183 26.12 4.8983 27.92 6.0983 26.84C11.8583 21.32 17.6183 15.8 23.2583 10.16C24.5783 8.83995 26.0183 7.51995 27.3383 6.19995C31.1783 9.91995 34.8983 13.52 38.7383 17.24C42.6983 21.08 46.6583 24.92 50.6183 28.76V45.8C50.6183 49.76 49.4183 53.36 46.1783 55.88C42.9383 58.52 38.8583 58.52 34.8983 58.16C31.8983 57.92 29.4983 55.52 29.0183 52.52C28.7783 51.08 28.6583 49.52 28.5383 48.08C28.2983 46.52 26.0183 46.4 26.0183 48.08C26.0183 49.4 25.8983 50.72 25.8983 52.04C25.7783 54.56 23.9783 56.96 21.4583 57.8C19.7783 58.28 17.8583 58.16 16.1783 58.28C14.0183 58.4 11.9783 58.04 10.0583 56.96C6.3383 54.8 4.1783 50.84 4.1783 46.4C4.1783 44.84 4.1783 43.28 4.1783 41.84C4.1783 41.12 3.5783 40.52 2.8583 40.52C2.1383 40.52 1.5383 41.12 1.5383 41.84C1.5383 43.52 1.4183 46.6399 1.6583 48.32C2.2583 53.6 5.7383 58.04 10.6583 59.96C12.5783 60.68 14.6183 60.92 16.6583 60.8C18.3383 60.68 20.2583 60.8 21.9383 60.32C24.3383 59.72 26.4983 57.92 27.6983 55.64C28.5383 57.44 30.0983 58.88 31.7783 59.72C33.2183 60.44 34.7783 60.56 36.4583 60.68C39.6983 60.8 42.8183 60.8 45.8183 59.24C49.4183 57.44 52.1783 53.96 53.0183 50C53.4983 48.08 53.3783 46.04 53.3783 44Z" fill="#EE6451"/>
<path d="M27.4583 41.72H31.1783C32.2583 41.72 32.9783 42.92 32.4983 43.88L30.6983 47.12L28.8983 50.36C28.2983 51.32 26.9783 51.32 26.3783 50.36L24.5783 47.12L22.5383 44C21.9383 43.04 22.6583 41.84 23.8583 41.84H27.4583V41.72Z" fill="#EE6451"/>
<path d="M5.37829 23.84C3.69829 25.52 2.01829 27.2 0.33829 28.88C-0.38171 29.6 0.0982897 31.04 1.29829 31.04C4.05829 31.04 6.81829 31.04 9.57829 31.04C11.8583 31.04 15.5783 31.64 17.2583 29.72C17.6183 29.24 17.0183 29.72 17.2583 29.6C17.4983 29.48 17.6183 29.36 17.8583 29.24C18.3383 29 18.9383 28.88 19.4183 29C20.4983 29.12 21.0983 29.96 21.8183 30.68C23.0183 31.88 24.8183 30.08 23.6183 28.88C21.9383 27.2 20.1383 26 17.6183 26.6C16.7783 26.84 16.0583 27.2 15.3383 27.8C14.7383 28.4 14.1383 28.52 13.2983 28.52C10.5383 28.52 7.65829 28.52 4.89829 28.52C3.57829 28.52 2.37829 28.52 1.05829 28.52C1.41829 29.36 1.77829 30.08 2.01829 30.8C3.69829 29.12 5.37829 27.44 7.05829 25.76C8.37829 24.56 6.57829 22.76 5.37829 23.84Z" fill="#EE6451"/>
<path d="M53.1383 30.2L40.2983 17.72L50.8583 4.15999C51.3383 3.55999 52.0583 3.31999 52.7783 3.55999C53.4983 3.79999 53.8583 4.39999 53.8583 5.11999L53.1383 30.2ZM43.6583 17.48L50.7383 24.32L51.2183 7.75999L43.6583 17.48Z" fill="#EE6451"/>
</svg>
