<svg width="15" height="16" viewBox="0 0 15 16" fill="none" xmlns="http://www.w3.org/2000/svg">
<path d="M3.06262 9.00061C3.79179 9.72978 4.67721 10.0944 5.71887 10.0944C6.76054 10.0944 7.64596 9.72978 8.37512 9.00061C9.10429 8.27144 9.46887 7.38603 9.46887 6.34436C9.46887 5.30269 9.10429 4.41728 8.37512 3.68811C7.64596 2.95894 6.76054 2.59436 5.71887 2.59436C4.67721 2.59436 3.79179 2.95894 3.06262 3.68811C2.33346 4.41728 1.96887 5.30269 1.96887 6.34436C1.96887 7.38603 2.33346 8.27144 3.06262 9.00061ZM10.7189 10.0944L14.8595 14.235L13.6095 15.485L9.46887 11.3444V10.6803L9.2345 10.4459C8.24491 11.3053 7.07304 11.735 5.71887 11.735C4.20846 11.735 2.91939 11.2142 1.85168 10.1725C0.810018 9.13082 0.289185 7.85478 0.289185 6.34436C0.289185 4.83394 0.810018 3.5579 1.85168 2.51624C2.91939 1.44853 4.20846 0.914673 5.71887 0.914673C7.22929 0.914673 8.50533 1.44853 9.547 2.51624C10.5887 3.5579 11.1095 4.83394 11.1095 6.34436C11.1095 6.89124 10.9793 7.51624 10.7189 8.21936C10.4585 8.89644 10.159 9.44332 9.82043 9.85999L10.0548 10.0944H10.7189Z" fill="#444444"/>
</svg>
